<?xml version="1.0" encoding="UTF-8"?>
<!DOCTYPE svg PUBLIC "-//W3C//DTD SVG 1.1//EN" "http://www.w3.org/Graphics/SVG/1.1/DTD/svg11.dtd">
<!-- Creator: CorelDRAW 2020 (64-Bit) -->
<svg xmlns="http://www.w3.org/2000/svg" xml:space="preserve" width="128mm" height="18mm" version="1.1" style="shape-rendering:geometricPrecision; text-rendering:geometricPrecision; image-rendering:optimizeQuality; fill-rule:evenodd; clip-rule:evenodd"
viewBox="0 0 128000 18000">
 <g id="Слой_x0020_1">
  <metadata id="CorelCorpID_0Corel-Layer"/>
  <path fill="#282828"  d="M5526.2 17477.2l3919.3 0 5407.6 -16456 -3457.8 0 -3899.7 12643.6 -3919.3 -12643.6 -3438.2 0 5388.1 16456zm18064.5 -11757.1l0 1386.3c-825.4,-1059.7 -2066.8,-1712.9 -3737.2,-1712.9 -3054.8,0 -5576.7,2699.3 -5576.7,6205.2 0,3505.8 2521.9,6205.1 5576.7,6205.1 1670.4,0 2911.8,-653.1 3737.2,-1712.9l0 1386.3 2957.3 0 0 -11757.1 -2957.3 0zm-3191.3 9191.1c-1806.9,0 -3158.7,-1339.7 -3158.7,-3312.5 0,-1972.9 1351.8,-3312.6 3158.7,-3312.6 1839.4,0 3191.3,1339.7 3191.3,3312.6 0,1972.8 -1351.9,3312.5 -3191.3,3312.5zm15384.5 -6271.8l0 -2919.3 -2593.3 0 0 -3292.6 -2957.4 919.8 0 2372.8 -1995.3 0 0 2919.3 1995.3 0 0 4885.5c0,3179.2 1404,4425.6 5550.7,3952.3l0 -2752.6c-1696.4,93.3 -2593.3,73.3 -2593.3,-1199.7l0 -4885.5 2593.3 0zm10456.9 -2919.3l0 1386.3c-825.5,-1059.7 -2066.9,-1712.9 -3737.3,-1712.9 -3054.7,0 -5576.7,2699.3 -5576.7,6205.2 0,3505.8 2522,6205.1 5576.7,6205.1 1670.4,0 2911.8,-653.1 3737.3,-1712.9l0 1386.3 2957.3 0 0 -11757.1 -2957.3 0zm-3191.3 9191.1c-1806.9,0 -3158.8,-1339.7 -3158.8,-3312.5 0,-1972.9 1351.9,-3312.6 3158.8,-3312.6 1839.4,0 3191.3,1339.7 3191.3,3312.6 0,1972.8 -1351.9,3312.5 -3191.3,3312.5zm15202.5 -9517.7c-1533.9,0 -2729.8,586.5 -3418.8,1646.2l0 -1319.6 -2957.2 0 0 11757.1 2957.2 0 0 -6351.8c0,-2039.5 1078.9,-2912.6 2521.9,-2912.6 1332.4,0 2274.8,826.5 2274.8,2419.4l0 6845 2957.4 0 0 -7218.2c0,-3125.9 -1904.5,-4865.5 -4335.3,-4865.5z"/>
  <path fill="#E94E1B" d="M76301.3 17803.8c2242.3,0 4192.2,-1219.7 5180.2,-3052.6l-2567.4 -1506.3c-461.4,966.5 -1442.9,1553 -2638.8,1553 -1761.4,0 -3067.7,-1339.7 -3067.7,-3199.2 0,-1879.6 1306.3,-3219.3 3067.7,-3219.3 1170,0 2157.9,606.5 2612.8,1573l2547.9 -1526.3c-942.5,-1812.9 -2892.4,-3032.6 -5134.7,-3032.6 -3483.8,0 -6057.6,2699.3 -6057.6,6205.2 0,3505.8 2573.8,6205.1 6057.6,6205.1z"/>
  <path fill="#282828" d="M91578.2 5720.1l0 1386.3c-825.5,-1059.7 -2066.9,-1712.9 -3737.3,-1712.9 -3054.8,0 -5576.7,2699.3 -5576.7,6205.2 0,3505.8 2521.9,6205.1 5576.7,6205.1 1670.4,0 2911.8,-653.1 3737.3,-1712.9l0 1386.3 2957.3 0 0 -11757.1 -2957.3 0zm-3191.3 9191.1c-1806.9,0 -3158.8,-1339.7 -3158.8,-3312.5 0,-1972.9 1351.9,-3312.6 3158.8,-3312.6 1839.3,0 3191.3,1339.7 3191.3,3312.6 0,1972.8 -1352,3312.5 -3191.3,3312.5zm15501.5 -9517.7c-1677,0 -2892.4,633.2 -3717.8,1712.9l0 -6085.2 -2957.4 0 0 16456 2957.4 0 0 -1386.3c825.4,1079.8 2040.8,1712.9 3717.8,1712.9 3067.7,0 5596.1,-2699.3 5596.1,-6205.1 0,-3505.9 -2528.4,-6205.2 -5596.1,-6205.2zm-552.5 9517.7c-1813.4,0 -3165.3,-1339.7 -3165.3,-3312.5 0,-1972.9 1351.9,-3312.6 3165.3,-3312.6 1832.9,0 3184.7,1339.7 3184.7,3312.6 0,1972.8 -1351.8,3312.5 -3184.7,3312.5zm10730.8 -2066.2l8644.5 0c64.9,-399.9 110.4,-799.8 110.4,-1246.3 0,-3459.2 -2404.8,-6205.2 -5797.7,-6205.2 -3600.7,0 -6057.6,2699.3 -6057.6,6205.2 0,3505.8 2430.9,6205.1 6285.2,6205.1 2203.3,0 3919.2,-913.1 4998.2,-2512.7l-2385.4 -1413c-500.5,686.5 -1423.4,1179.7 -2567.3,1179.7 -1559.9,0 -2820.8,-659.8 -3230.3,-2212.8zm-45.5 -2352.7c344.4,-1506.4 1416.9,-2372.8 3002.7,-2372.8 1235,0 2476.4,679.8 2840.4,2372.8l-5843.1 0zm10867.3 6984.9l2957.3 0 0 -17162.4 -2957.3 0 0 17162.4z"/>
 </g>
</svg>
